<svg width="300" height="70" viewBox="0 0 300 70" fill="none" xmlns="http://www.w3.org/2000/svg">
    <path d="M32.5093 54.3383C33.27 53.3954 33.4138 52.044 32.7685 50.9342C31.9329 49.4971 30.0905 49.0095 28.6534 49.8451C28.6326 49.8572 28.6119 49.8696 28.5914 49.8821C28.9776 49.0261 28.9587 48.0026 28.4507 47.1289C27.6151 45.6918 25.7727 45.2042 24.3356 46.0398C23.8609 46.3158 23.4898 46.7017 23.2357 47.1465C22.3127 46.542 21.0902 46.4693 20.0714 47.0617C19.3343 47.4903 18.8471 48.1836 18.6599 48.9513C17.9002 48.7342 17.0565 48.8147 16.3195 49.2432C14.8824 50.0788 14.3948 51.9212 15.2304 53.3583C15.2353 53.3668 15.2403 53.3753 15.2453 53.3837C15.0002 53.4512 14.7597 53.5511 14.5295 53.6849C13.0924 54.5205 12.6048 56.3629 13.4404 57.8C13.7253 58.2899 14.1271 58.6694 14.59 58.9238C14.3417 59.7052 14.4118 60.5846 14.8563 61.3492C15.6851 62.7745 17.5042 63.2659 18.936 62.4586C18.9665 62.9049 19.0973 63.3512 19.3374 63.764C20.173 65.2011 22.0154 65.6887 23.4525 64.8531C24.1658 64.4384 24.6451 63.7757 24.8449 63.0376C25.7564 63.5894 26.9333 63.639 27.9193 63.0656C29.2616 62.2852 29.7756 60.6263 29.1566 59.2398C30.0178 59.6381 31.0532 59.624 31.9357 59.1109C33.3728 58.2753 33.8604 56.4329 33.0248 54.9958C32.8805 54.7477 32.7063 54.5278 32.5093 54.3383V54.3383Z" fill="url(#paint0_linear)"/>
    <path d="M27.263 53.1636C28.1763 54.7344 28.3078 56.3619 27.8154 56.6482C27.323 56.9345 26.603 55.6493 25.6896 54.0785C24.7763 52.5077 24.0155 51.2462 24.5079 50.9599C25.0003 50.6735 26.3497 51.5928 27.263 53.1636Z" fill="black"/>
    <path d="M27.1772 53.2945C27.527 53.896 27.5396 54.5413 27.2054 54.7356C26.8712 54.9299 26.5588 54.459 26.209 53.8574C25.8592 53.2559 25.6045 52.7514 25.9387 52.5571C26.2729 52.3627 26.8274 52.6929 27.1772 53.2945Z" fill="#C48CE1"/>
    <path d="M21.579 57.0355C22.3903 58.4309 22.3364 60.0912 21.582 61.3948C22.3388 61.8324 23.3024 61.8634 24.1123 61.3925C25.3155 60.693 25.7237 59.1505 25.0242 57.9473C24.3246 56.7442 22.7821 56.3359 21.579 57.0355Z" fill="white"/>
    <path d="M22.9357 58.0988C23.0772 58.1018 23.2139 58.1763 23.2903 58.3077C23.4069 58.5082 23.3389 58.7653 23.1383 58.8819C23.007 58.9583 22.8513 58.9554 22.7268 58.888C22.7461 58.9998 22.7852 59.1102 22.8456 59.214C23.1177 59.6819 23.7175 59.8407 24.1854 59.5686C24.6533 59.2966 24.8121 58.6967 24.54 58.2288C24.268 57.7609 23.6681 57.6022 23.2002 57.8742C23.0964 57.9346 23.0077 58.0112 22.9357 58.0988Z" fill="black"/>
    <path d="M19.3087 51.8776C18.3395 52.4411 18.0106 53.6836 18.5742 54.6529C19.1377 55.6221 20.3802 55.9509 21.3495 55.3874C21.6711 55.2004 21.9222 54.9386 22.0935 54.6369C21.6092 54.3023 21.1892 53.8584 20.8737 53.3158C20.5582 52.7732 20.3802 52.1886 20.329 51.6021C19.982 51.6018 19.6303 51.6906 19.3087 51.8776Z" fill="white"/>
    <path d="M19.7845 53.9491C19.8817 54.1162 19.825 54.3305 19.6578 54.4276C19.551 54.4898 19.4249 54.489 19.3224 54.4366C19.3384 54.5354 19.3724 54.6329 19.4256 54.7246C19.6588 55.1256 20.173 55.2617 20.574 55.0285C20.9751 54.7953 21.1112 54.2812 20.878 53.8801C20.6448 53.4791 20.1306 53.343 19.7296 53.5762C19.6379 53.6295 19.5601 53.6974 19.4974 53.7754C19.6123 53.7806 19.7224 53.8423 19.7845 53.9491Z" fill="black"/>
    <path d="M45.0742 4.59998C49.5862 4.59998 53.4502 5.72798 56.6662 7.98397C59.9302 10.192 62.4022 13.216 64.0822 17.056C65.8102 20.848 66.6742 25.096 66.6742 29.8C66.6742 34.504 65.8102 38.776 64.0822 42.616C62.4022 46.408 59.9302 49.432 56.6662 51.688C53.4502 53.896 49.5862 55 45.0742 55H30L29.5 54C30.5 53 30.5 53 28 52.5C29 51.108 26.8118 51.0697 26 51C26 49.5 23.4742 51.3046 23.4742 50.608V8.99197C23.4742 7.74398 23.8822 6.71198 24.6982 5.89598C25.5622 5.03198 26.6182 4.59998 27.8662 4.59998H45.0742ZM44.3542 46.72C48.6742 46.72 51.9142 45.136 54.0742 41.968C56.2342 38.752 57.3142 34.696 57.3142 29.8C57.3142 24.904 56.2102 20.872 54.0022 17.704C51.8422 14.488 48.6262 12.88 44.3542 12.88H32.4742V46.72H44.3542Z" fill="white"/>
    <path d="M109.345 34.84C109.297 35.992 108.841 36.928 107.977 37.648C107.113 38.368 106.105 38.728 104.953 38.728H81.1935C81.7695 41.56 83.0895 43.792 85.1535 45.424C87.2175 47.008 89.5455 47.8 92.1375 47.8C94.1055 47.8 95.6415 47.632 96.7455 47.296C97.8495 46.912 98.7135 46.528 99.3375 46.144C100.009 45.712 100.465 45.424 100.705 45.28C101.569 44.848 102.385 44.632 103.153 44.632C104.161 44.632 105.025 44.992 105.745 45.712C106.465 46.432 106.825 47.272 106.825 48.232C106.825 49.528 106.153 50.704 104.809 51.76C103.465 52.864 101.665 53.8 99.4095 54.568C97.1535 55.336 94.8735 55.72 92.5695 55.72C88.5375 55.72 85.0095 54.88 81.9855 53.2C79.0095 51.52 76.7055 49.216 75.0735 46.288C73.4415 43.312 72.6255 39.976 72.6255 36.28C72.6255 32.152 73.4895 28.528 75.2175 25.408C76.9455 22.288 79.2255 19.912 82.0575 18.28C84.8895 16.6 87.9135 15.76 91.1295 15.76C94.2975 15.76 97.2735 16.624 100.057 18.352C102.889 20.08 105.145 22.408 106.825 25.336C108.505 28.264 109.345 31.432 109.345 34.84ZM91.1295 23.68C85.5615 23.68 82.2735 26.296 81.2655 31.528H100.129V31.024C99.9375 29.008 98.9535 27.28 97.1775 25.84C95.4015 24.4 93.3855 23.68 91.1295 23.68Z" fill="white"/>
    <path d="M145.792 16.552C146.944 16.552 147.904 16.936 148.672 17.704C149.44 18.424 149.824 19.336 149.824 20.44C149.824 21.016 149.632 21.736 149.248 22.6L135.784 52.264C135.448 53.08 134.944 53.728 134.272 54.208C133.648 54.688 132.928 54.952 132.112 55L131.464 55.072C130.648 55.072 129.88 54.832 129.16 54.352C128.488 53.824 127.96 53.128 127.576 52.264L114.184 22.6C113.848 21.832 113.68 21.064 113.68 20.296C113.68 19.336 114.088 18.472 114.904 17.704C115.72 16.888 116.728 16.48 117.928 16.48C118.84 16.48 119.68 16.72 120.448 17.2C121.216 17.68 121.792 18.352 122.176 19.216L132.112 41.968L141.976 19.288C142.36 18.376 142.888 17.68 143.56 17.2C144.232 16.72 144.976 16.504 145.792 16.552Z" fill="white"/>
    <path d="M189.766 4.59998C191.062 4.59998 192.118 4.98398 192.934 5.75198C193.75 6.51998 194.158 7.52798 194.158 8.77598C194.158 10.024 193.75 11.032 192.934 11.8C192.118 12.52 191.062 12.88 189.766 12.88H178.462V50.608C178.462 51.856 178.006 52.912 177.094 53.776C176.182 54.592 175.054 55 173.71 55C172.366 55 171.262 54.592 170.398 53.776C169.534 52.912 169.102 51.856 169.102 50.608V12.88H157.798C156.502 12.88 155.446 12.496 154.63 11.728C153.814 10.96 153.406 9.95198 153.406 8.70398C153.406 7.50398 153.814 6.51998 154.63 5.75198C155.494 4.98398 156.55 4.59998 157.798 4.59998H189.766Z" fill="white"/>
    <path d="M209.132 50.608C209.132 51.856 208.724 52.912 207.908 53.776C207.092 54.592 206.06 55 204.812 55C203.564 55 202.532 54.592 201.716 53.776C200.9 52.912 200.492 51.856 200.492 50.608V20.872C200.492 19.624 200.9 18.592 201.716 17.776C202.532 16.912 203.564 16.48 204.812 16.48C206.06 16.48 207.092 16.912 207.908 17.776C208.724 18.592 209.132 19.624 209.132 20.872V50.608Z" fill="white"/>
    <path d="M237.956 15.76C241.268 15.76 244.268 16.624 246.956 18.352C249.644 20.032 251.756 22.384 253.292 25.408C254.876 28.432 255.668 31.864 255.668 35.704C255.668 39.544 254.9 43 253.364 46.072C251.828 49.096 249.716 51.472 247.028 53.2C244.388 54.88 241.46 55.72 238.244 55.72C235.94 55.72 233.756 55.264 231.692 54.352C229.676 53.392 227.996 52.24 226.652 50.896V65.008C226.652 66.256 226.244 67.288 225.428 68.104C224.612 68.968 223.58 69.4 222.332 69.4C221.084 69.4 220.052 68.992 219.236 68.176C218.42 67.36 218.012 66.304 218.012 65.008V20.872C218.012 19.624 218.42 18.592 219.236 17.776C220.052 16.912 221.084 16.48 222.332 16.48C223.58 16.48 224.612 16.912 225.428 17.776C226.244 18.592 226.652 19.624 226.652 20.872V21.16C227.804 19.72 229.412 18.472 231.476 17.416C233.54 16.312 235.7 15.76 237.956 15.76ZM236.876 47.8C239.948 47.8 242.468 46.648 244.436 44.344C246.404 42.04 247.388 39.16 247.388 35.704C247.388 32.248 246.404 29.392 244.436 27.136C242.516 24.832 239.996 23.68 236.876 23.68C233.756 23.68 231.212 24.832 229.244 27.136C227.276 29.392 226.292 32.248 226.292 35.704C226.292 39.16 227.276 42.04 229.244 44.344C231.212 46.648 233.756 47.8 236.876 47.8Z" fill="white"/>
    <path d="M260.639 49.024C260.207 48.448 259.991 47.728 259.991 46.864C259.991 45.616 260.615 44.56 261.863 43.696C262.535 43.264 263.231 43.048 263.951 43.048C264.959 43.048 265.919 43.504 266.831 44.416C268.271 45.904 269.759 47.008 271.295 47.728C272.879 48.448 274.775 48.808 276.983 48.808C280.727 48.664 282.599 47.248 282.599 44.56C282.599 43.168 281.951 42.112 280.655 41.392C279.407 40.672 277.439 39.952 274.751 39.232C271.967 38.464 269.687 37.696 267.911 36.928C266.183 36.16 264.671 35.008 263.375 33.472C262.127 31.888 261.503 29.776 261.503 27.136C261.503 24.832 262.151 22.84 263.447 21.16C264.791 19.432 266.519 18.112 268.631 17.2C270.791 16.24 273.071 15.76 275.471 15.76C277.919 15.76 280.367 16.216 282.815 17.128C285.263 18.04 287.183 19.384 288.575 21.16C289.199 21.928 289.511 22.792 289.511 23.752C289.511 24.856 289.055 25.768 288.143 26.488C287.471 27.016 286.703 27.28 285.839 27.28C284.783 27.28 283.919 26.944 283.247 26.272C282.383 25.216 281.255 24.376 279.863 23.752C278.519 23.128 276.983 22.816 275.255 22.816C271.607 22.816 269.783 24.136 269.783 26.776C269.783 27.832 270.119 28.696 270.791 29.368C271.463 29.992 272.303 30.496 273.311 30.88C274.367 31.216 275.831 31.648 277.703 32.176C280.295 32.896 282.455 33.64 284.183 34.408C285.911 35.176 287.375 36.352 288.575 37.936C289.775 39.52 290.375 41.608 290.375 44.2C290.375 46.552 289.679 48.616 288.287 50.392C286.895 52.12 285.095 53.44 282.887 54.352C280.727 55.264 278.495 55.72 276.191 55.72C273.023 55.72 270.071 55.192 267.335 54.136C264.599 53.08 262.367 51.376 260.639 49.024Z" fill="white"/>
    <path d="M205.547 1.93274C205.197 2.06284 205.847 1.52223 206.629 1.52223C207.847 1.52223 206.122 0.500135 204.253 1.14905C202.384 1.79797 199.752 3.68526 199.034 5.8003C198.317 7.91534 200.251 5.18981 200.251 5.18981C200.251 5.18981 199.571 7.02992 199.571 7.71952C199.571 8.40913 200.705 6.81476 200.705 6.81476C200.705 6.81476 199.881 9.12227 199.97 10.0724C200.059 11.0225 200.951 8.79489 200.951 8.79489C200.951 8.79489 200.216 12.5335 200.705 12.258C201.193 11.9825 201.489 11.2094 201.489 11.2094C201.489 11.2094 201.484 11.884 201.877 12.5538C202.27 13.2236 202.55 11.727 202.55 11.727C202.55 11.727 203.668 13.2775 204.253 13.069C204.838 12.8606 204.506 11.559 204.506 11.559C204.506 11.559 205.641 13.3711 206.159 12.9624C206.677 12.5538 206.553 11.9766 206.553 11.9766C206.553 11.9766 207.462 13.2815 207.676 12.7698C207.891 12.258 207.368 10.5336 207.368 10.5336C207.368 10.5336 209.024 13.1343 209.276 11.9766C209.527 10.819 208.31 8.91975 208.31 8.91975C208.31 8.91975 210.103 10.5664 210.332 10.0724C210.561 9.57837 209.276 7.95289 209.276 7.95289C209.276 7.95289 211.144 9.48496 210.866 8.09125C210.587 6.69755 209.895 5.91971 209.895 5.91971C209.895 5.91971 211.29 7.1226 211.078 6.28679C210.866 5.45098 209.643 4.06093 209.072 3.82343C208.5 3.58594 210.926 4.79149 210.784 4.18872C210.642 3.58594 208.771 3.12075 208.368 2.54934C208.193 2.30106 209.103 2.67951 209.663 2.74974C210.223 2.81997 209.881 2.41637 208.831 1.93274C207.78 1.4491 206.232 1.67855 205.547 1.93274Z" fill="url(#paint1_linear)"/>
    <path d="M203.133 8.40002H206.867C206.867 9.43096 206.031 10.2667 205 10.2667C203.969 10.2667 203.133 9.43096 203.133 8.40002Z" fill="black"/>
    <mask id="mask0" mask-type="alpha" maskUnits="userSpaceOnUse" x="203" y="8" width="4" height="3">
        <path d="M203.133 8.40002H206.867C206.867 9.43096 206.031 10.2667 205 10.2667C203.969 10.2667 203.133 9.43096 203.133 8.40002Z" fill="white"/>
    </mask>
    <g mask="url(#mask0)">
        <path d="M205.14 11.3867C205.99 11.3867 206.68 11.0106 206.68 10.5467C206.68 10.0827 205.99 9.70667 205.14 9.70667C204.289 9.70667 203.6 10.0827 203.6 10.5467C203.6 11.0106 204.289 11.3867 205.14 11.3867Z" fill="#F34D4D"/>
        <rect x="204.253" y="8.40002" width="0.653333" height="0.933333" fill="white"/>
        <rect x="205.093" y="8.40002" width="0.653333" height="0.933333" fill="white"/>
    </g>
    <path d="M205.373 5.4134C206.449 5.4134 207.388 4.82599 207.887 3.95435C208.393 4.24387 208.733 4.78883 208.733 5.4134C208.733 6.34124 207.981 7.0934 207.053 7.0934C206.126 7.0934 205.373 6.34124 205.373 5.4134Z" fill="white"/>
    <path d="M206.441 5.83893C206.49 5.91952 206.579 5.97333 206.68 5.97333C206.835 5.97333 206.96 5.84797 206.96 5.69333C206.96 5.59202 206.906 5.50328 206.826 5.45412C206.897 5.42774 206.973 5.41333 207.053 5.41333C207.414 5.41333 207.707 5.70584 207.707 6.06666C207.707 6.42749 207.414 6.72 207.053 6.72C206.693 6.72 206.4 6.42749 206.4 6.06666C206.4 5.98657 206.414 5.90984 206.441 5.83893Z" fill="black"/>
    <path d="M201.267 5.4134C202.343 5.4134 203.282 4.82599 203.78 3.95435C204.286 4.24387 204.627 4.78883 204.627 5.4134C204.627 6.34124 203.875 7.0934 202.947 7.0934C202.019 7.0934 201.267 6.34124 201.267 5.4134Z" fill="white"/>
    <path d="M202.334 5.83893C202.383 5.91952 202.472 5.97333 202.573 5.97333C202.728 5.97333 202.853 5.84797 202.853 5.69333C202.853 5.59202 202.799 5.50328 202.719 5.45412C202.79 5.42774 202.867 5.41333 202.947 5.41333C203.307 5.41333 203.6 5.70584 203.6 6.06666C203.6 6.42749 203.307 6.72 202.947 6.72C202.586 6.72 202.293 6.42749 202.293 6.06666C202.293 5.98657 202.308 5.90984 202.334 5.83893Z" fill="black"/>
    <path d="M129.516 16.0987C125.782 19.5907 127.109 22.2134 126.286 22.6604C125.463 23.1074 124.998 23.2754 124.587 23.7913C124.176 24.3072 124.777 25.0973 125.531 24.8466C126.286 24.596 126.864 23.4892 126.864 23.4892C126.864 23.4892 126.696 25.1223 128.394 27.0908C128.22 27.5778 128.112 28.161 128.758 28.161C129.404 28.161 129.376 27.6176 129.844 27.5778C133.356 28.407 135.459 27.5778 135.65 27.5778C135.842 27.5778 135.894 28.161 136.427 28.161C136.961 28.161 136.853 27.0908 136.853 27.0908C136.853 27.0908 138.423 24.9802 138.277 23.4892C138.845 24.1307 139.701 24.9278 140.298 24.2553C140.895 23.5828 139.607 23.0986 138.845 22.4046C138.082 21.7106 138.658 20.4689 137.401 18.0075C136.143 15.5461 135.246 16.3364 135.519 15.8496C135.792 15.3627 135.647 15.236 134.967 15.4839C134.287 15.7318 134.21 15.2974 135.183 14.5157C136.157 13.7341 133.25 12.6067 129.516 16.0987Z" fill="#6282D0"/>
    <path fill-rule="evenodd" clip-rule="evenodd" d="M134.443 22.9457C134.088 22.1015 133.102 21.6946 132.213 22.0359C131.323 22.3772 130.862 23.3398 131.164 24.2042L134.443 22.9457Z" fill="black"/>
    <mask id="mask1" mask-type="alpha" maskUnits="userSpaceOnUse" x="130" y="21" width="5" height="4">
        <path fill-rule="evenodd" clip-rule="evenodd" d="M134.443 22.9457C134.088 22.1015 133.102 21.6946 132.213 22.0359C131.323 22.3772 130.862 23.3398 131.164 24.2042L134.443 22.9457Z" fill="white"/>
    </mask>
    <g mask="url(#mask1)">
        <path d="M133.01 25.2601C133.605 25.2601 134.087 24.7019 134.087 24.0134C134.087 23.3249 133.605 22.7667 133.01 22.7667C132.415 22.7667 131.933 23.3249 131.933 24.0134C131.933 24.7019 132.415 25.2601 133.01 25.2601Z" fill="#F34D4D"/>
    </g>
    <path d="M133.407 19.0834C133.407 18.1758 134.142 17.4401 135.05 17.4401C135.958 17.4401 136.693 18.1758 136.693 19.0834C136.693 19.3845 136.612 19.6668 136.471 19.9095C136.04 19.7067 135.558 19.5934 135.05 19.5934C134.542 19.5934 134.06 19.7067 133.629 19.9095C133.488 19.6668 133.407 19.3845 133.407 19.0834Z" fill="white"/>
    <path d="M135.05 18.5734C135.207 18.5734 135.333 18.4465 135.333 18.29C135.333 18.19 135.282 18.102 135.203 18.0516C135.279 18.0226 135.361 18.0067 135.447 18.0067C135.822 18.0067 136.127 18.3112 136.127 18.6867C136.127 19.0623 135.822 19.3667 135.447 19.3667C135.071 19.3667 134.767 19.0623 134.767 18.6867C134.767 18.6009 134.783 18.5188 134.812 18.4432C134.862 18.5215 134.95 18.5734 135.05 18.5734Z" fill="black"/>
    <path d="M128.42 19.0834C128.42 18.1758 129.156 17.4401 130.063 17.4401C130.971 17.4401 131.707 18.1758 131.707 19.0834C131.707 19.3845 131.626 19.6668 131.484 19.9095C131.053 19.7067 130.571 19.5934 130.063 19.5934C129.555 19.5934 129.074 19.7067 128.642 19.9095C128.501 19.6668 128.42 19.3845 128.42 19.0834Z" fill="white"/>
    <path d="M130.063 18.5734C130.22 18.5734 130.347 18.4465 130.347 18.29C130.347 18.19 130.295 18.102 130.217 18.0516C130.292 18.0226 130.374 18.0067 130.46 18.0067C130.836 18.0067 131.14 18.3112 131.14 18.6867C131.14 19.0623 130.836 19.3667 130.46 19.3667C130.085 19.3667 129.78 19.0623 129.78 18.6867C129.78 18.6009 129.796 18.5188 129.825 18.4432C129.875 18.5215 129.963 18.5734 130.063 18.5734Z" fill="black"/>
    <defs>
        <linearGradient id="paint0_linear" x1="37.8107" y1="67.3189" x2="11.7749" y2="65.6933" gradientUnits="userSpaceOnUse">
            <stop stop-color="#DD58A0"/>
            <stop offset="1" stop-color="#4A24A4"/>
        </linearGradient>
        <linearGradient id="paint1_linear" x1="198.84" y1="0.93335" x2="198.84" y2="13.0937" gradientUnits="userSpaceOnUse">
            <stop stop-color="#9EEF5D"/>
            <stop offset="1" stop-color="#0AC2A7"/>
        </linearGradient>
    </defs>
</svg>
