<svg width="689" height="434" viewBox="0 0 689 434" fill="none" xmlns="http://www.w3.org/2000/svg">
    <g clip-path="url(#clip0)">
        <g filter="url(#filter0_d)">
            <path d="M339.512 117.837L341.325 123.418H347.193L342.446 126.866L344.259 132.447L339.512 128.998L334.765 132.447L336.578 126.866L331.831 123.418H337.699L339.512 117.837Z" fill="white" fill-opacity="0.25"/>
        </g>
        <g filter="url(#filter1_d)">
            <path d="M666.824 212.848L668.637 218.428H674.505L669.758 221.877L671.571 227.458L666.824 224.009L662.077 227.458L663.891 221.877L659.144 218.428H665.011L666.824 212.848Z" fill="white" fill-opacity="0.25"/>
        </g>
        <g filter="url(#filter2_d)">
            <path d="M272.054 10L273.867 15.5803H279.735L274.988 19.0292L276.801 24.6095L272.054 21.1607L267.307 24.6095L269.12 19.0292L264.374 15.5803H270.241L272.054 10Z" fill="white" fill-opacity="0.25"/>
        </g>
        <g filter="url(#filter3_d)">
            <path d="M599.367 105.011L601.18 110.591H607.047L602.3 114.04L604.114 119.62L599.367 116.171L594.62 119.62L596.433 114.04L591.686 110.591H597.553L599.367 105.011Z" fill="white" fill-opacity="0.25"/>
        </g>
        <g filter="url(#filter4_d)">
            <path d="M32.1518 157.742L33.965 163.322H39.8325L35.0856 166.771L36.8987 172.351L32.1518 168.903L27.4049 172.351L29.2181 166.771L24.4712 163.322H30.3387L32.1518 157.742Z" fill="white" fill-opacity="0.25"/>
        </g>
        <g filter="url(#filter5_d)">
            <path d="M144.74 211.423L146.553 217.003H152.42L147.673 220.452L149.487 226.032L144.74 222.584L139.993 226.032L141.806 220.452L137.059 217.003H142.927L144.74 211.423Z" fill="white" fill-opacity="0.25"/>
        </g>
        <g filter="url(#filter6_d)">
            <path d="M24.0759 31.3774L25.8891 36.9578H31.7566L27.0097 40.4066L28.8228 45.9869L24.0759 42.5381L19.329 45.9869L21.1422 40.4066L16.3953 36.9578H22.2628L24.0759 31.3774Z" fill="white" fill-opacity="0.25"/>
        </g>
        <g filter="url(#filter7_d)">
            <path d="M643.547 21.4013L645.36 26.9816H651.227L646.48 30.4305L648.294 36.0108L643.547 32.562L638.8 36.0108L640.613 30.4305L635.866 26.9816H641.734L643.547 21.4013Z" fill="white" fill-opacity="0.25"/>
        </g>
        <g filter="url(#filter8_d)">
            <circle cx="188.92" cy="68.4317" r="2.37527" fill="white" fill-opacity="0.25"/>
        </g>
        <g filter="url(#filter9_d)">
            <circle cx="301.983" cy="90.2842" r="2.37527" fill="white" fill-opacity="0.25"/>
        </g>
        <g filter="url(#filter10_d)">
            <circle cx="385.592" cy="95.0347" r="2.37527" fill="white" fill-opacity="0.25"/>
        </g>
        <g filter="url(#filter11_d)">
            <circle cx="550.436" cy="19.026" r="2.37527" fill="white" fill-opacity="0.25"/>
        </g>
        <g filter="url(#filter12_d)">
            <circle cx="358.514" cy="29.4772" r="2.37527" fill="white" fill-opacity="0.25"/>
        </g>
        <g filter="url(#filter13_d)">
            <circle cx="629.295" cy="185.295" r="2.37527" fill="white" fill-opacity="0.25"/>
        </g>
        <g filter="url(#filter14_d)">
            <circle cx="122.412" cy="37.0781" r="2.37527" fill="white" fill-opacity="0.25"/>
        </g>
        <g filter="url(#filter15_d)">
            <circle cx="465.401" cy="23.7766" r="2.37527" fill="white" fill-opacity="0.25"/>
        </g>
        <g filter="url(#filter16_d)">
            <circle cx="250.202" cy="177.694" r="2.37527" fill="white" fill-opacity="0.25"/>
        </g>
        <g filter="url(#filter17_d)">
            <circle cx="165.642" cy="148.241" r="2.37527" fill="white" fill-opacity="0.25"/>
        </g>
        <g filter="url(#filter18_d)">
            <path d="M427.65 152.249C427.65 126.358 405.843 112.149 383.331 122.941C360.819 133.732 362.621 162.308 371.17 182.365C379.719 202.422 361.64 200.891 355.467 200.891C349.293 200.891 349.748 211.111 362.774 209.043C375.801 206.975 379.365 201.224 385.237 203.448C391.11 205.672 401.392 214.413 408.308 211.728C415.224 209.043 403.039 207.343 403.039 203.448C403.039 199.553 407.954 199.5 415.224 203.448C422.494 207.396 436.829 212.924 440.525 206.051C444.222 199.178 423.689 203.448 419.634 194.318C415.578 185.188 427.65 178.14 427.65 152.249Z" fill="url(#paint0_linear)"/>
            <path d="M379.34 181.67C381.571 176.899 388.516 173.42 396.738 173.42C404.96 173.42 411.905 176.899 414.137 181.67C411.905 186.441 404.96 189.92 396.738 189.92C388.516 189.92 381.571 186.441 379.34 181.67H379.34Z" fill="black"/>
            <mask id="mask0" mask-type="alpha" maskUnits="userSpaceOnUse" x="379" y="173" width="36" height="17">
                <path d="M379.34 181.67C381.571 176.899 388.516 173.42 396.738 173.42C404.96 173.42 411.905 176.899 414.137 181.67C411.905 186.441 404.96 189.92 396.738 189.92C388.516 189.92 381.571 186.441 379.34 181.67H379.34Z" fill="white"/>
            </mask>
            <g mask="url(#mask0)">
                <path fill-rule="evenodd" clip-rule="evenodd" d="M396.83 205.007C395.374 205.906 393.683 206.42 391.88 206.42C386.412 206.42 381.98 201.692 381.98 195.86C381.98 190.028 386.412 185.3 391.88 185.3C393.683 185.3 395.374 185.814 396.83 186.713C398.286 185.814 399.977 185.3 401.78 185.3C407.248 185.3 411.68 190.028 411.68 195.86C411.68 201.692 407.248 206.42 401.78 206.42C399.977 206.42 398.286 205.906 396.83 205.007Z" fill="#C48CE1"/>
                <rect x="383.3" y="169.46" width="3.3" height="9.24" rx="1.65" fill="white"/>
                <rect x="387.92" y="172.1" width="3.3" height="5.28" rx="1.65" fill="white"/>
                <rect x="392.54" y="171.44" width="3.3" height="5.28" rx="1.65" fill="white"/>
                <rect x="397.16" y="171.44" width="3.3" height="5.28" rx="1.65" fill="white"/>
                <rect x="401.78" y="172.1" width="3.3" height="5.28" rx="1.65" fill="white"/>
                <rect x="406.4" y="169.46" width="3.3" height="9.24" rx="1.65" fill="white"/>
            </g>
            <path d="M396.5 166.16C402.697 166.16 407.72 161.137 407.72 154.94C407.72 148.743 402.697 143.72 396.5 143.72C390.303 143.72 385.28 148.743 385.28 154.94C385.28 161.137 390.303 166.16 396.5 166.16Z" fill="white"/>
            <path d="M396.5 162.86C400.874 162.86 404.42 159.314 404.42 154.94C404.42 150.566 400.874 147.02 396.5 147.02C392.126 147.02 388.58 150.566 388.58 154.94C388.58 159.314 392.126 162.86 396.5 162.86Z" fill="url(#paint1_linear)"/>
            <path d="M396.5 160.22C399.416 160.22 401.78 157.856 401.78 154.94C401.78 152.024 399.416 149.66 396.5 149.66C393.584 149.66 391.22 152.024 391.22 154.94C391.22 157.856 393.584 160.22 396.5 160.22Z" fill="black"/>
            <path d="M393.854 156.079C394.552 156.292 395.419 155.476 395.792 154.256C396.165 153.036 395.902 151.874 395.205 151.661C394.508 151.448 393.64 152.264 393.267 153.484C392.894 154.704 393.157 155.866 393.854 156.079Z" fill="white"/>
        </g>
        <g filter="url(#filter19_d)">
            <path d="M204.753 318.956C217.342 308.631 227.39 304.362 234.897 306.147C246.157 308.825 228.205 304.138 222.48 315.614C237.65 301.02 266.827 315.417 266.212 316.28C265.597 317.143 256.893 314.305 254.008 317.011C261.89 318.162 273.621 333.828 273.019 335.875C272.416 337.922 267.924 330.484 264.801 329.727C268.867 333.363 273.205 356.352 270.056 360.029C266.908 363.706 266.852 359.859 265.647 355.277C267.079 360.725 262.393 377.102 260.379 377.587C258.365 378.071 259.864 371.119 258.547 366.108C258.987 372.292 256.568 381.147 254.02 383.683C252.321 385.374 248.617 384.744 242.907 381.791C248.541 386.571 249.3 389.456 245.182 390.447C241.065 391.438 234.965 388.949 226.884 382.982C232.987 388.288 234.839 391.23 232.439 391.807C230.04 392.385 223.751 389.003 213.573 381.662C223.365 388.97 225.081 392.17 218.719 391.263C212.357 390.356 205.97 384.387 199.559 373.356C199.734 384.155 198.721 388.292 196.52 385.765C194.319 383.239 192.909 376.41 192.291 365.278C190.474 371.693 188.949 374.61 187.717 374.03C186.486 373.45 186.379 367.6 187.396 356.48C185.57 368.655 184.028 372.352 182.771 367.569C181.513 362.787 181.892 354.666 183.907 343.206C175.175 358.129 172.811 358.698 176.814 344.913C180.817 331.127 190.13 322.475 204.753 318.956Z" fill="url(#paint2_linear)"/>
            <path fill-rule="evenodd" clip-rule="evenodd" d="M219.258 366.794C222.388 373.775 230.584 376.897 237.565 373.768C244.545 370.638 247.667 362.442 244.538 355.461L219.258 366.794Z" fill="black"/>
            <path d="M244.799 366.172C243.523 369.436 241.015 372.221 237.565 373.768C234.296 375.233 230.761 375.328 227.605 374.298C228.105 371.844 229.608 369.745 231.887 368.723C233.02 368.215 234.223 368.027 235.413 368.121C236.134 367.171 237.075 366.397 238.207 365.89C240.341 364.933 242.727 365.112 244.799 366.172Z" fill="#F34D4D"/>
            <path d="M231.525 348.392C229.505 347.127 227.825 345.27 226.776 342.931C223.96 336.648 226.769 329.272 233.052 326.456C239.335 323.639 246.711 326.449 249.528 332.731C250.576 335.07 250.845 337.56 250.445 339.91L231.525 348.392Z" fill="white"/>
            <path fill-rule="evenodd" clip-rule="evenodd" d="M243.622 333.102C245.187 336.592 243.626 340.69 240.135 342.255C236.645 343.82 232.547 342.259 230.982 338.769C230.339 337.334 230.224 335.797 230.554 334.376C231.182 335.397 232.485 335.818 233.608 335.314C234.83 334.767 235.376 333.332 234.828 332.111C234.45 331.266 233.647 330.744 232.784 330.684C233.279 330.258 233.843 329.896 234.469 329.615C237.959 328.051 242.057 329.612 243.622 333.102Z" fill="black"/>
            <path d="M203.718 360.858C201.697 359.593 200.017 357.736 198.969 355.397C196.152 349.115 198.962 341.738 205.245 338.922C211.527 336.105 218.904 338.915 221.72 345.198C222.769 347.536 223.038 350.026 222.638 352.376L203.718 360.858Z" fill="white"/>
            <path fill-rule="evenodd" clip-rule="evenodd" d="M215.815 345.568C217.379 349.059 215.818 353.157 212.328 354.721C208.838 356.286 204.74 354.725 203.175 351.235C202.532 349.801 202.417 348.264 202.746 346.842C203.375 347.863 204.678 348.284 205.801 347.781C207.022 347.233 207.569 345.799 207.021 344.577C206.642 343.732 205.84 343.21 204.977 343.15C205.472 342.724 206.035 342.362 206.661 342.082C210.152 340.517 214.25 342.078 215.815 345.568Z" fill="black"/>
        </g>
        <g filter="url(#filter20_bd)">
            <path d="M446 383H254V191H446V383ZM319.067 342.808L304.475 351.811C306.749 356.802 310.435 361.018 315.077 363.939C320.121 366.829 325.852 368.303 331.664 368.205C334.713 368.184 337.75 367.826 340.72 367.139C346.934 365.61 352.203 361.505 355.205 355.853C358.197 348.813 359.3 341.114 358.405 333.517C358.405 332.067 358.405 330.584 358.405 329.091C358.459 318.136 358.405 306.989 358.405 296.195C358.405 290.691 358.405 285.176 358.405 279.651V279.203H340.4C340.4 286.947 340.4 294.673 340.4 302.381C340.4 310.136 340.4 317.88 340.4 325.645C340.4 327.629 340.4 329.571 340.4 331.437C340.935 336.761 340.549 342.138 339.259 347.331C337.709 350.321 334.521 352.094 331.163 351.832C329.659 351.828 328.163 351.601 326.725 351.16C323.837 349.65 321.508 347.253 320.08 344.323L319.728 343.725C319.397 343.16 319.173 342.765 319.067 342.765V342.808ZM382.523 340.675L367.877 349.069C369.076 351.693 370.73 354.084 372.763 356.131C373.264 356.685 373.829 357.283 374.352 357.944C381.513 364.349 390.873 367.739 400.475 367.405C412.9 368.63 424.64 361.495 429.275 349.901V349.816C430.489 345.555 430.682 341.067 429.84 336.717L430.203 337.24C428.624 327.331 421.445 320.451 406.181 314.253C404.997 313.699 403.771 313.187 402.576 312.653C397.829 310.605 393.349 308.685 391.792 305.187C391.098 303.387 390.972 301.418 391.429 299.544C392.534 295.791 396.156 293.357 400.048 293.752C401.236 293.752 402.418 293.925 403.557 294.264C407.068 295.447 409.908 298.069 411.365 301.475C419.632 296.067 419.632 296.067 425.403 292.472C424.082 290.219 422.512 288.122 420.72 286.221C415.244 280.352 407.388 277.303 399.387 277.944H398.107L392.475 278.659C387.185 279.846 382.4 282.658 378.789 286.701C374.545 292.009 372.633 298.812 373.492 305.554C374.35 312.296 377.905 318.402 383.344 322.477C388.016 325.675 393.055 328.3 398.352 330.296C405.189 333.176 411.088 335.629 412.283 340.12C413.006 342.721 412.473 345.51 410.843 347.661C407.947 350.521 403.942 351.964 399.888 351.608C398.772 351.605 397.657 351.533 396.549 351.395C390.517 350.043 385.382 346.112 382.501 340.643L382.523 340.675Z" fill="#7B7BB6" fill-opacity="0.4"/>
        </g>
        <g filter="url(#filter21_d)">
            <path d="M426.375 348.335C423.601 347.546 423.018 333.922 419.984 334.371C416.95 334.82 419.783 349.325 414.697 350.062C409.61 350.799 406.635 340.801 403.371 343.307C400.106 345.814 408.441 349.807 405.893 355.41C403.345 361.013 389.503 356.665 389.805 359.236C390.107 361.807 404.667 361.114 404.101 365.038C403.534 368.962 393.562 370.32 392.257 372.791C390.951 375.263 400.178 373.372 399.971 378.967C399.765 384.563 391.712 386.362 393.148 389.35C394.585 392.337 405.101 386.254 405.893 391.282C406.684 396.311 398.633 399.123 399.971 400.954C401.31 402.785 405.291 397.291 411.366 398.77C417.442 400.249 412.788 406.702 414.697 407.499C416.606 408.296 418.087 403.2 421.275 402.366C424.464 401.533 423.275 411.223 425.429 411.223C427.584 411.223 425.185 401.867 429.771 402.366C434.356 402.865 434.322 409.76 436.703 408.904C439.084 408.049 436.18 400.076 439.786 398.77C443.391 397.463 447.194 404.572 449.496 403.382C451.797 402.192 445.728 396.576 449.496 393.75C453.263 390.924 458.707 397.788 460.568 396.546C462.43 395.305 456.884 390.483 457.785 388.221C458.685 385.958 468.848 390.687 467.316 386.254C465.785 381.821 456.602 381.299 455.647 378.02C454.692 374.742 464.775 377.001 467.316 373.722C469.857 370.443 457.785 369.943 457.785 367.443C457.785 364.942 463.69 363.642 463.69 361.317C463.69 358.992 452.309 362.806 451.287 359.236C450.264 355.666 459.811 353.472 459.083 351.136C458.355 348.801 451.792 352.542 448.148 349.165C444.505 345.788 449.195 336.898 445.576 337.155C441.956 337.413 440.888 347.488 436.703 347.488C432.518 347.488 431.846 337.547 429.771 337.155C427.695 336.764 429.15 349.125 426.375 348.335Z" fill="url(#paint3_linear)"/>
            <path d="M420.04 387.442L423.96 383.64L424.075 389.24C424.075 389.24 423.402 389.086 421.978 388.535C420.554 387.984 420.04 387.442 420.04 387.442Z" fill="white"/>
            <path d="M438.52 387.713L434.04 383.64L434.15 389.24L438.52 387.713Z" fill="white"/>
            <path d="M439.64 385.88C437.751 388.198 433.696 389.8 429 389.8C424.304 389.8 420.249 388.198 418.36 385.88" stroke="black" stroke-width="2" stroke-linecap="round"/>
            <path d="M432.36 365.014C433.088 369.232 436.764 372.44 441.189 372.44C446.138 372.44 450.149 368.428 450.149 363.48C450.149 360.399 448.594 357.681 446.226 356.069C443.269 360.885 438.229 364.285 432.36 365.014Z" fill="white"/>
            <mask id="mask1" mask-type="alpha" maskUnits="userSpaceOnUse" x="432" y="356" width="19" height="17">
                <path d="M432.36 365.014C433.088 369.232 436.764 372.44 441.189 372.44C446.138 372.44 450.149 368.428 450.149 363.48C450.149 360.399 448.594 357.681 446.226 356.069C443.269 360.885 438.229 364.285 432.36 365.014Z" fill="white"/>
            </mask>
            <g mask="url(#mask1)">
                <path fill-rule="evenodd" clip-rule="evenodd" d="M443.56 363.76C443.56 366.08 441.68 367.96 439.36 367.96C437.04 367.96 435.16 366.08 435.16 363.76C435.16 362.992 435.366 362.272 435.726 361.653C435.793 362.364 436.391 362.92 437.12 362.92C437.893 362.92 438.52 362.293 438.52 361.52C438.52 360.792 437.964 360.193 437.253 360.126C437.872 359.766 438.592 359.56 439.36 359.56C441.68 359.56 443.56 361.44 443.56 363.76Z" fill="black"/>
            </g>
            <path d="M411.643 356.069C414.6 360.885 419.64 364.285 425.509 365.014C424.782 369.232 421.106 372.44 416.68 372.44C411.732 372.44 407.72 368.428 407.72 363.48C407.72 360.399 409.275 357.681 411.643 356.069V356.069Z" fill="white"/>
            <mask id="mask2" mask-type="alpha" maskUnits="userSpaceOnUse" x="407" y="356" width="19" height="17">
                <path d="M411.643 356.069C414.6 360.885 419.64 364.285 425.509 365.014C424.782 369.232 421.106 372.44 416.68 372.44C411.732 372.44 407.72 368.428 407.72 363.48C407.72 360.399 409.275 357.681 411.643 356.069V356.069Z" fill="white"/>
            </mask>
            <g mask="url(#mask2)">
                <path fill-rule="evenodd" clip-rule="evenodd" d="M418.92 363.76C418.92 366.08 417.04 367.96 414.72 367.96C412.4 367.96 410.52 366.08 410.52 363.76C410.52 362.992 410.726 362.272 411.086 361.653C411.153 362.364 411.752 362.92 412.48 362.92C413.253 362.92 413.88 362.293 413.88 361.52C413.88 360.792 413.324 360.193 412.613 360.126C413.232 359.766 413.952 359.56 414.72 359.56C417.04 359.56 418.92 361.44 418.92 363.76Z" fill="black"/>
            </g>
        </g>
    </g>
    <defs>
        <filter id="filter0_d" x="322.831" y="108.837" width="35.3613" height="34.6095" filterUnits="userSpaceOnUse" color-interpolation-filters="sRGB">
            <feFlood flood-opacity="0" result="BackgroundImageFix"/>
            <feColorMatrix in="SourceAlpha" type="matrix" values="0 0 0 0 0 0 0 0 0 0 0 0 0 0 0 0 0 0 127 0"/>
            <feOffset dx="1" dy="1"/>
            <feGaussianBlur stdDeviation="5"/>
            <feColorMatrix type="matrix" values="0 0 0 0 1 0 0 0 0 1 0 0 0 0 1 0 0 0 0.33 0"/>
            <feBlend mode="normal" in2="BackgroundImageFix" result="effect1_dropShadow"/>
            <feBlend mode="normal" in="SourceGraphic" in2="effect1_dropShadow" result="shape"/>
        </filter>
        <filter id="filter1_d" x="650.144" y="203.848" width="35.3613" height="34.6095" filterUnits="userSpaceOnUse" color-interpolation-filters="sRGB">
            <feFlood flood-opacity="0" result="BackgroundImageFix"/>
            <feColorMatrix in="SourceAlpha" type="matrix" values="0 0 0 0 0 0 0 0 0 0 0 0 0 0 0 0 0 0 127 0"/>
            <feOffset dx="1" dy="1"/>
            <feGaussianBlur stdDeviation="5"/>
            <feColorMatrix type="matrix" values="0 0 0 0 1 0 0 0 0 1 0 0 0 0 1 0 0 0 0.33 0"/>
            <feBlend mode="normal" in2="BackgroundImageFix" result="effect1_dropShadow"/>
            <feBlend mode="normal" in="SourceGraphic" in2="effect1_dropShadow" result="shape"/>
        </filter>
        <filter id="filter2_d" x="255.374" y="1" width="35.3613" height="34.6095" filterUnits="userSpaceOnUse" color-interpolation-filters="sRGB">
            <feFlood flood-opacity="0" result="BackgroundImageFix"/>
            <feColorMatrix in="SourceAlpha" type="matrix" values="0 0 0 0 0 0 0 0 0 0 0 0 0 0 0 0 0 0 127 0"/>
            <feOffset dx="1" dy="1"/>
            <feGaussianBlur stdDeviation="5"/>
            <feColorMatrix type="matrix" values="0 0 0 0 1 0 0 0 0 1 0 0 0 0 1 0 0 0 0.33 0"/>
            <feBlend mode="normal" in2="BackgroundImageFix" result="effect1_dropShadow"/>
            <feBlend mode="normal" in="SourceGraphic" in2="effect1_dropShadow" result="shape"/>
        </filter>
        <filter id="filter3_d" x="582.686" y="96.0108" width="35.3613" height="34.6095" filterUnits="userSpaceOnUse" color-interpolation-filters="sRGB">
            <feFlood flood-opacity="0" result="BackgroundImageFix"/>
            <feColorMatrix in="SourceAlpha" type="matrix" values="0 0 0 0 0 0 0 0 0 0 0 0 0 0 0 0 0 0 127 0"/>
            <feOffset dx="1" dy="1"/>
            <feGaussianBlur stdDeviation="5"/>
            <feColorMatrix type="matrix" values="0 0 0 0 1 0 0 0 0 1 0 0 0 0 1 0 0 0 0.33 0"/>
            <feBlend mode="normal" in2="BackgroundImageFix" result="effect1_dropShadow"/>
            <feBlend mode="normal" in="SourceGraphic" in2="effect1_dropShadow" result="shape"/>
        </filter>
        <filter id="filter4_d" x="15.4712" y="148.742" width="35.3613" height="34.6095" filterUnits="userSpaceOnUse" color-interpolation-filters="sRGB">
            <feFlood flood-opacity="0" result="BackgroundImageFix"/>
            <feColorMatrix in="SourceAlpha" type="matrix" values="0 0 0 0 0 0 0 0 0 0 0 0 0 0 0 0 0 0 127 0"/>
            <feOffset dx="1" dy="1"/>
            <feGaussianBlur stdDeviation="5"/>
            <feColorMatrix type="matrix" values="0 0 0 0 1 0 0 0 0 1 0 0 0 0 1 0 0 0 0.33 0"/>
            <feBlend mode="normal" in2="BackgroundImageFix" result="effect1_dropShadow"/>
            <feBlend mode="normal" in="SourceGraphic" in2="effect1_dropShadow" result="shape"/>
        </filter>
        <filter id="filter5_d" x="128.059" y="202.423" width="35.3613" height="34.6095" filterUnits="userSpaceOnUse" color-interpolation-filters="sRGB">
            <feFlood flood-opacity="0" result="BackgroundImageFix"/>
            <feColorMatrix in="SourceAlpha" type="matrix" values="0 0 0 0 0 0 0 0 0 0 0 0 0 0 0 0 0 0 127 0"/>
            <feOffset dx="1" dy="1"/>
            <feGaussianBlur stdDeviation="5"/>
            <feColorMatrix type="matrix" values="0 0 0 0 1 0 0 0 0 1 0 0 0 0 1 0 0 0 0.33 0"/>
            <feBlend mode="normal" in2="BackgroundImageFix" result="effect1_dropShadow"/>
            <feBlend mode="normal" in="SourceGraphic" in2="effect1_dropShadow" result="shape"/>
        </filter>
        <filter id="filter6_d" x="7.39526" y="22.3774" width="35.3613" height="34.6095" filterUnits="userSpaceOnUse" color-interpolation-filters="sRGB">
            <feFlood flood-opacity="0" result="BackgroundImageFix"/>
            <feColorMatrix in="SourceAlpha" type="matrix" values="0 0 0 0 0 0 0 0 0 0 0 0 0 0 0 0 0 0 127 0"/>
            <feOffset dx="1" dy="1"/>
            <feGaussianBlur stdDeviation="5"/>
            <feColorMatrix type="matrix" values="0 0 0 0 1 0 0 0 0 1 0 0 0 0 1 0 0 0 0.33 0"/>
            <feBlend mode="normal" in2="BackgroundImageFix" result="effect1_dropShadow"/>
            <feBlend mode="normal" in="SourceGraphic" in2="effect1_dropShadow" result="shape"/>
        </filter>
        <filter id="filter7_d" x="626.866" y="12.4013" width="35.3613" height="34.6095" filterUnits="userSpaceOnUse" color-interpolation-filters="sRGB">
            <feFlood flood-opacity="0" result="BackgroundImageFix"/>
            <feColorMatrix in="SourceAlpha" type="matrix" values="0 0 0 0 0 0 0 0 0 0 0 0 0 0 0 0 0 0 127 0"/>
            <feOffset dx="1" dy="1"/>
            <feGaussianBlur stdDeviation="5"/>
            <feColorMatrix type="matrix" values="0 0 0 0 1 0 0 0 0 1 0 0 0 0 1 0 0 0 0.33 0"/>
            <feBlend mode="normal" in2="BackgroundImageFix" result="effect1_dropShadow"/>
            <feBlend mode="normal" in="SourceGraphic" in2="effect1_dropShadow" result="shape"/>
        </filter>
        <filter id="filter8_d" x="182.544" y="62.0564" width="12.7505" height="12.7505" filterUnits="userSpaceOnUse" color-interpolation-filters="sRGB">
            <feFlood flood-opacity="0" result="BackgroundImageFix"/>
            <feColorMatrix in="SourceAlpha" type="matrix" values="0 0 0 0 0 0 0 0 0 0 0 0 0 0 0 0 0 0 127 0"/>
            <feOffset/>
            <feGaussianBlur stdDeviation="2"/>
            <feColorMatrix type="matrix" values="0 0 0 0 1 0 0 0 0 1 0 0 0 0 1 0 0 0 0.25 0"/>
            <feBlend mode="normal" in2="BackgroundImageFix" result="effect1_dropShadow"/>
            <feBlend mode="normal" in="SourceGraphic" in2="effect1_dropShadow" result="shape"/>
        </filter>
        <filter id="filter9_d" x="295.607" y="83.9089" width="12.7505" height="12.7505" filterUnits="userSpaceOnUse" color-interpolation-filters="sRGB">
            <feFlood flood-opacity="0" result="BackgroundImageFix"/>
            <feColorMatrix in="SourceAlpha" type="matrix" values="0 0 0 0 0 0 0 0 0 0 0 0 0 0 0 0 0 0 127 0"/>
            <feOffset/>
            <feGaussianBlur stdDeviation="2"/>
            <feColorMatrix type="matrix" values="0 0 0 0 1 0 0 0 0 1 0 0 0 0 1 0 0 0 0.25 0"/>
            <feBlend mode="normal" in2="BackgroundImageFix" result="effect1_dropShadow"/>
            <feBlend mode="normal" in="SourceGraphic" in2="effect1_dropShadow" result="shape"/>
        </filter>
        <filter id="filter10_d" x="379.217" y="88.6594" width="12.7505" height="12.7505" filterUnits="userSpaceOnUse" color-interpolation-filters="sRGB">
            <feFlood flood-opacity="0" result="BackgroundImageFix"/>
            <feColorMatrix in="SourceAlpha" type="matrix" values="0 0 0 0 0 0 0 0 0 0 0 0 0 0 0 0 0 0 127 0"/>
            <feOffset/>
            <feGaussianBlur stdDeviation="2"/>
            <feColorMatrix type="matrix" values="0 0 0 0 1 0 0 0 0 1 0 0 0 0 1 0 0 0 0.25 0"/>
            <feBlend mode="normal" in2="BackgroundImageFix" result="effect1_dropShadow"/>
            <feBlend mode="normal" in="SourceGraphic" in2="effect1_dropShadow" result="shape"/>
        </filter>
        <filter id="filter11_d" x="544.061" y="12.6508" width="12.7505" height="12.7505" filterUnits="userSpaceOnUse" color-interpolation-filters="sRGB">
            <feFlood flood-opacity="0" result="BackgroundImageFix"/>
            <feColorMatrix in="SourceAlpha" type="matrix" values="0 0 0 0 0 0 0 0 0 0 0 0 0 0 0 0 0 0 127 0"/>
            <feOffset/>
            <feGaussianBlur stdDeviation="2"/>
            <feColorMatrix type="matrix" values="0 0 0 0 1 0 0 0 0 1 0 0 0 0 1 0 0 0 0.25 0"/>
            <feBlend mode="normal" in2="BackgroundImageFix" result="effect1_dropShadow"/>
            <feBlend mode="normal" in="SourceGraphic" in2="effect1_dropShadow" result="shape"/>
        </filter>
        <filter id="filter12_d" x="352.139" y="23.1019" width="12.7505" height="12.7505" filterUnits="userSpaceOnUse" color-interpolation-filters="sRGB">
            <feFlood flood-opacity="0" result="BackgroundImageFix"/>
            <feColorMatrix in="SourceAlpha" type="matrix" values="0 0 0 0 0 0 0 0 0 0 0 0 0 0 0 0 0 0 127 0"/>
            <feOffset/>
            <feGaussianBlur stdDeviation="2"/>
            <feColorMatrix type="matrix" values="0 0 0 0 1 0 0 0 0 1 0 0 0 0 1 0 0 0 0.25 0"/>
            <feBlend mode="normal" in2="BackgroundImageFix" result="effect1_dropShadow"/>
            <feBlend mode="normal" in="SourceGraphic" in2="effect1_dropShadow" result="shape"/>
        </filter>
        <filter id="filter13_d" x="622.92" y="178.92" width="12.7505" height="12.7505" filterUnits="userSpaceOnUse" color-interpolation-filters="sRGB">
            <feFlood flood-opacity="0" result="BackgroundImageFix"/>
            <feColorMatrix in="SourceAlpha" type="matrix" values="0 0 0 0 0 0 0 0 0 0 0 0 0 0 0 0 0 0 127 0"/>
            <feOffset/>
            <feGaussianBlur stdDeviation="2"/>
            <feColorMatrix type="matrix" values="0 0 0 0 1 0 0 0 0 1 0 0 0 0 1 0 0 0 0.25 0"/>
            <feBlend mode="normal" in2="BackgroundImageFix" result="effect1_dropShadow"/>
            <feBlend mode="normal" in="SourceGraphic" in2="effect1_dropShadow" result="shape"/>
        </filter>
        <filter id="filter14_d" x="116.037" y="30.7028" width="12.7505" height="12.7505" filterUnits="userSpaceOnUse" color-interpolation-filters="sRGB">
            <feFlood flood-opacity="0" result="BackgroundImageFix"/>
            <feColorMatrix in="SourceAlpha" type="matrix" values="0 0 0 0 0 0 0 0 0 0 0 0 0 0 0 0 0 0 127 0"/>
            <feOffset/>
            <feGaussianBlur stdDeviation="2"/>
            <feColorMatrix type="matrix" values="0 0 0 0 1 0 0 0 0 1 0 0 0 0 1 0 0 0 0.25 0"/>
            <feBlend mode="normal" in2="BackgroundImageFix" result="effect1_dropShadow"/>
            <feBlend mode="normal" in="SourceGraphic" in2="effect1_dropShadow" result="shape"/>
        </filter>
        <filter id="filter15_d" x="459.026" y="17.4013" width="12.7505" height="12.7505" filterUnits="userSpaceOnUse" color-interpolation-filters="sRGB">
            <feFlood flood-opacity="0" result="BackgroundImageFix"/>
            <feColorMatrix in="SourceAlpha" type="matrix" values="0 0 0 0 0 0 0 0 0 0 0 0 0 0 0 0 0 0 127 0"/>
            <feOffset/>
            <feGaussianBlur stdDeviation="2"/>
            <feColorMatrix type="matrix" values="0 0 0 0 1 0 0 0 0 1 0 0 0 0 1 0 0 0 0.25 0"/>
            <feBlend mode="normal" in2="BackgroundImageFix" result="effect1_dropShadow"/>
            <feBlend mode="normal" in="SourceGraphic" in2="effect1_dropShadow" result="shape"/>
        </filter>
        <filter id="filter16_d" x="243.826" y="171.319" width="12.7505" height="12.7505" filterUnits="userSpaceOnUse" color-interpolation-filters="sRGB">
            <feFlood flood-opacity="0" result="BackgroundImageFix"/>
            <feColorMatrix in="SourceAlpha" type="matrix" values="0 0 0 0 0 0 0 0 0 0 0 0 0 0 0 0 0 0 127 0"/>
            <feOffset/>
            <feGaussianBlur stdDeviation="2"/>
            <feColorMatrix type="matrix" values="0 0 0 0 1 0 0 0 0 1 0 0 0 0 1 0 0 0 0.25 0"/>
            <feBlend mode="normal" in2="BackgroundImageFix" result="effect1_dropShadow"/>
            <feBlend mode="normal" in="SourceGraphic" in2="effect1_dropShadow" result="shape"/>
        </filter>
        <filter id="filter17_d" x="159.267" y="141.866" width="12.7505" height="12.7505" filterUnits="userSpaceOnUse" color-interpolation-filters="sRGB">
            <feFlood flood-opacity="0" result="BackgroundImageFix"/>
            <feColorMatrix in="SourceAlpha" type="matrix" values="0 0 0 0 0 0 0 0 0 0 0 0 0 0 0 0 0 0 127 0"/>
            <feOffset/>
            <feGaussianBlur stdDeviation="2"/>
            <feColorMatrix type="matrix" values="0 0 0 0 1 0 0 0 0 1 0 0 0 0 1 0 0 0 0.25 0"/>
            <feBlend mode="normal" in2="BackgroundImageFix" result="effect1_dropShadow"/>
            <feBlend mode="normal" in="SourceGraphic" in2="effect1_dropShadow" result="shape"/>
        </filter>
        <filter id="filter18_d" x="327" y="96" width="139" height="139" filterUnits="userSpaceOnUse" color-interpolation-filters="sRGB">
            <feFlood flood-opacity="0" result="BackgroundImageFix"/>
            <feColorMatrix in="SourceAlpha" type="matrix" values="0 0 0 0 0 0 0 0 0 0 0 0 0 0 0 0 0 0 127 0"/>
            <feOffset/>
            <feGaussianBlur stdDeviation="10"/>
            <feColorMatrix type="matrix" values="0 0 0 0 0.478431 0 0 0 0 0.207843 0 0 0 0 0.639216 0 0 0 1 0"/>
            <feBlend mode="normal" in2="BackgroundImageFix" result="effect1_dropShadow"/>
            <feBlend mode="normal" in="SourceGraphic" in2="effect1_dropShadow" result="shape"/>
        </filter>
        <filter id="filter19_d" x="139" y="263" width="177.296" height="177.296" filterUnits="userSpaceOnUse" color-interpolation-filters="sRGB">
            <feFlood flood-opacity="0" result="BackgroundImageFix"/>
            <feColorMatrix in="SourceAlpha" type="matrix" values="0 0 0 0 0 0 0 0 0 0 0 0 0 0 0 0 0 0 127 0"/>
            <feOffset/>
            <feGaussianBlur stdDeviation="10"/>
            <feColorMatrix type="matrix" values="0 0 0 0 0.419608 0 0 0 0 0.866667 0 0 0 0 0.345098 0 0 0 1 0"/>
            <feBlend mode="normal" in2="BackgroundImageFix" result="effect1_dropShadow"/>
            <feBlend mode="normal" in="SourceGraphic" in2="effect1_dropShadow" result="shape"/>
        </filter>
        <filter id="filter20_bd" x="197" y="134" width="306" height="306" filterUnits="userSpaceOnUse" color-interpolation-filters="sRGB">
            <feFlood flood-opacity="0" result="BackgroundImageFix"/>
            <feGaussianBlur in="BackgroundImage" stdDeviation="12.5"/>
            <feComposite in2="SourceAlpha" operator="in" result="effect1_backgroundBlur"/>
            <feColorMatrix in="SourceAlpha" type="matrix" values="0 0 0 0 0 0 0 0 0 0 0 0 0 0 0 0 0 0 127 0"/>
            <feOffset dy="4"/>
            <feGaussianBlur stdDeviation="2"/>
            <feColorMatrix type="matrix" values="0 0 0 0 0 0 0 0 0 0 0 0 0 0 0 0 0 0 0.25 0"/>
            <feBlend mode="normal" in2="effect1_backgroundBlur" result="effect2_dropShadow"/>
            <feBlend mode="normal" in="SourceGraphic" in2="effect2_dropShadow" result="shape"/>
        </filter>
        <filter id="filter21_d" x="367" y="311" width="124" height="124" filterUnits="userSpaceOnUse" color-interpolation-filters="sRGB">
            <feFlood flood-opacity="0" result="BackgroundImageFix"/>
            <feColorMatrix in="SourceAlpha" type="matrix" values="0 0 0 0 0 0 0 0 0 0 0 0 0 0 0 0 0 0 127 0"/>
            <feOffset/>
            <feGaussianBlur stdDeviation="10"/>
            <feColorMatrix type="matrix" values="0 0 0 0 0.235294 0 0 0 0 0.364706 0 0 0 0 0.807843 0 0 0 1 0"/>
            <feBlend mode="normal" in2="BackgroundImageFix" result="effect1_dropShadow"/>
            <feBlend mode="normal" in="SourceGraphic" in2="effect1_dropShadow" result="shape"/>
        </filter>
        <linearGradient id="paint0_linear" x1="484.431" y1="194.846" x2="422.528" y2="91.0433" gradientUnits="userSpaceOnUse">
            <stop stop-color="#DD58A0"/>
            <stop offset="1" stop-color="#4A24A4"/>
        </linearGradient>
        <linearGradient id="paint1_linear" x1="388.601" y1="147.02" x2="388.601" y2="162.817" gradientUnits="userSpaceOnUse">
            <stop stop-color="#3AA4E5"/>
            <stop offset="0.999548" stop-color="#12FFBA"/>
        </linearGradient>
        <linearGradient id="paint2_linear" x1="167.096" y1="334.362" x2="201.149" y2="410.322" gradientUnits="userSpaceOnUse">
            <stop stop-color="#D0FFA0"/>
            <stop offset="1" stop-color="#4AD240"/>
        </linearGradient>
        <linearGradient id="paint3_linear" x1="486.059" y1="393.024" x2="449.952" y2="318.595" gradientUnits="userSpaceOnUse">
            <stop stop-color="#2B00B6"/>
            <stop offset="1" stop-color="#51D1EC"/>
        </linearGradient>
        <clipPath id="clip0">
            <rect width="689" height="434" fill="white"/>
        </clipPath>
    </defs>
</svg>
